<svg width="84" height="20" viewBox="0 0 84 20" fill="none" xmlns="http://www.w3.org/2000/svg">
<path d="M10 2V3C13.866 3 17 6.13401 17 10H18H19C19 5.02944 14.9706 1 10 1V2ZM18 10H19C19 8.14645 17.2132 7 15.5 7V8V9C16.5482 9 17 9.64441 17 10H18ZM15.5 8V7C13.7868 7 12 8.14645 12 10H13H14C14 9.64441 14.4518 9 15.5 9V8ZM13 10H14C14 9.00933 13.3977 8.23485 12.676 7.75374C11.9474 7.26796 10.9983 7 10 7V8V9C10.6585 9 11.2095 9.17976 11.5666 9.41784C11.9307 9.66058 12 9.8861 12 10H13ZM10 8V7C9.00168 7 8.05265 7.26796 7.32398 7.75374C6.6023 8.23485 6 9.00933 6 10H7H8C8 9.8861 8.06927 9.66058 8.43338 9.41784C8.7905 9.17976 9.34146 9 10 9V8ZM7 10H8C8 8.14645 6.21323 7 4.5 7V8V9C5.54819 9 6 9.64441 6 10H7ZM4.5 8V7C2.78677 7 1 8.14645 1 10H2H3C3 9.64441 3.45181 9 4.5 9V8ZM2 10H3C3 6.13401 6.13401 3 10 3V2V1C5.02944 1 1 5.02944 1 10H2Z" fill="black"/>
<path d="M10 8V16" stroke="black" stroke-width="2" stroke-linecap="round"/>
<path d="M11 16C11 17.6569 9.65685 19 8 19V17C8.55228 17 9 16.5523 9 16H11Z" fill="black"/>
<path d="M5 12L4 15" stroke="black" stroke-width="2"/>
<path d="M15 12L16 15" stroke="black" stroke-width="2"/>
<path d="M28.805 12.585L28.445 10.86L32.195 7.095H34.655L28.805 12.585ZM27.08 15V3.9H28.925V15H27.08ZM32.42 15L29.51 11.475L30.815 10.365L34.7 15H32.42ZM39.1911 15.15C38.4011 15.15 37.6961 14.975 37.0761 14.625C36.4561 14.265 35.9661 13.775 35.6061 13.155C35.2461 12.535 35.0661 11.83 35.0661 11.04C35.0661 10.25 35.2461 9.545 35.6061 8.925C35.9661 8.305 36.4561 7.82 37.0761 7.47C37.6961 7.11 38.4011 6.93 39.1911 6.93C39.9711 6.93 40.6711 7.11 41.2911 7.47C41.9111 7.82 42.3961 8.305 42.7461 8.925C43.1061 9.545 43.2861 10.25 43.2861 11.04C43.2861 11.83 43.1061 12.535 42.7461 13.155C42.3961 13.775 41.9111 14.265 41.2911 14.625C40.6711 14.975 39.9711 15.15 39.1911 15.15ZM39.1911 13.515C39.6211 13.515 40.0011 13.405 40.3311 13.185C40.6711 12.965 40.9361 12.67 41.1261 12.3C41.3261 11.93 41.4211 11.51 41.4111 11.04C41.4211 10.56 41.3261 10.135 41.1261 9.765C40.9361 9.395 40.6711 9.105 40.3311 8.895C40.0011 8.675 39.6211 8.565 39.1911 8.565C38.7611 8.565 38.3711 8.675 38.0211 8.895C37.6811 9.105 37.4161 9.4 37.2261 9.78C37.0361 10.15 36.9411 10.57 36.9411 11.04C36.9411 11.51 37.0361 11.93 37.2261 12.3C37.4161 12.67 37.6811 12.965 38.0211 13.185C38.3711 13.405 38.7611 13.515 39.1911 13.515ZM47.5764 15.15C46.8764 15.15 46.2464 15.035 45.6864 14.805C45.1364 14.565 44.6864 14.225 44.3364 13.785L45.5364 12.75C45.8364 13.09 46.1714 13.335 46.5414 13.485C46.9114 13.635 47.3014 13.71 47.7114 13.71C47.8814 13.71 48.0314 13.69 48.1614 13.65C48.3014 13.61 48.4214 13.55 48.5214 13.47C48.6214 13.39 48.6964 13.3 48.7464 13.2C48.8064 13.09 48.8364 12.97 48.8364 12.84C48.8364 12.6 48.7464 12.41 48.5664 12.27C48.4664 12.2 48.3064 12.125 48.0864 12.045C47.8764 11.965 47.6014 11.885 47.2614 11.805C46.7214 11.665 46.2714 11.505 45.9114 11.325C45.5514 11.135 45.2714 10.925 45.0714 10.695C44.9014 10.505 44.7714 10.29 44.6814 10.05C44.6014 9.81 44.5614 9.55 44.5614 9.27C44.5614 8.92 44.6364 8.605 44.7864 8.325C44.9464 8.035 45.1614 7.785 45.4314 7.575C45.7014 7.365 46.0164 7.205 46.3764 7.095C46.7364 6.985 47.1114 6.93 47.5014 6.93C47.9014 6.93 48.2864 6.98 48.6564 7.08C49.0364 7.18 49.3864 7.325 49.7064 7.515C50.0364 7.695 50.3164 7.915 50.5464 8.175L49.5264 9.3C49.3364 9.12 49.1264 8.96 48.8964 8.82C48.6764 8.68 48.4514 8.57 48.2214 8.49C47.9914 8.4 47.7764 8.355 47.5764 8.355C47.3864 8.355 47.2164 8.375 47.0664 8.415C46.9164 8.445 46.7914 8.495 46.6914 8.565C46.5914 8.635 46.5114 8.725 46.4514 8.835C46.4014 8.935 46.3764 9.055 46.3764 9.195C46.3864 9.315 46.4164 9.43 46.4664 9.54C46.5264 9.64 46.6064 9.725 46.7064 9.795C46.8164 9.865 46.9814 9.945 47.2014 10.035C47.4214 10.125 47.7064 10.21 48.0564 10.29C48.5464 10.42 48.9564 10.565 49.2864 10.725C49.6164 10.885 49.8764 11.07 50.0664 11.28C50.2564 11.46 50.3914 11.67 50.4714 11.91C50.5514 12.15 50.5914 12.415 50.5914 12.705C50.5914 13.175 50.4564 13.595 50.1864 13.965C49.9264 14.335 49.5664 14.625 49.1064 14.835C48.6564 15.045 48.1464 15.15 47.5764 15.15ZM55.2017 15.15C54.5517 15.15 53.9617 14.97 53.4317 14.61C52.9017 14.25 52.4767 13.76 52.1567 13.14C51.8367 12.52 51.6767 11.815 51.6767 11.025C51.6767 10.235 51.8367 9.53 52.1567 8.91C52.4767 8.29 52.9117 7.805 53.4617 7.455C54.0117 7.105 54.6317 6.93 55.3217 6.93C55.7217 6.93 56.0867 6.99 56.4167 7.11C56.7467 7.22 57.0367 7.38 57.2867 7.59C57.5367 7.8 57.7417 8.04 57.9017 8.31C58.0717 8.58 58.1867 8.87 58.2467 9.18L57.8417 9.075V7.095H59.7017V15H57.8267V13.11L58.2617 13.035C58.1917 13.305 58.0617 13.57 57.8717 13.83C57.6917 14.08 57.4617 14.305 57.1817 14.505C56.9117 14.695 56.6067 14.85 56.2667 14.97C55.9367 15.09 55.5817 15.15 55.2017 15.15ZM55.7117 13.515C56.1417 13.515 56.5217 13.41 56.8517 13.2C57.1817 12.99 57.4367 12.7 57.6167 12.33C57.8067 11.95 57.9017 11.515 57.9017 11.025C57.9017 10.545 57.8067 10.12 57.6167 9.75C57.4367 9.38 57.1817 9.09 56.8517 8.88C56.5217 8.67 56.1417 8.565 55.7117 8.565C55.2817 8.565 54.9017 8.67 54.5717 8.88C54.2517 9.09 54.0017 9.38 53.8217 9.75C53.6417 10.12 53.5517 10.545 53.5517 11.025C53.5517 11.515 53.6417 11.95 53.8217 12.33C54.0017 12.7 54.2517 12.99 54.5717 13.2C54.9017 13.41 55.2817 13.515 55.7117 13.515ZM61.8107 15V7.095H63.6257L63.6557 8.685L63.3557 8.805C63.4457 8.545 63.5807 8.305 63.7607 8.085C63.9407 7.855 64.1557 7.66 64.4057 7.5C64.6557 7.33 64.9207 7.2 65.2007 7.11C65.4807 7.01 65.7657 6.96 66.0557 6.96C66.4857 6.96 66.8657 7.03 67.1957 7.17C67.5357 7.3 67.8157 7.51 68.0357 7.8C68.2657 8.09 68.4357 8.46 68.5457 8.91L68.2607 8.85L68.3807 8.61C68.4907 8.37 68.6457 8.155 68.8457 7.965C69.0457 7.765 69.2707 7.59 69.5207 7.44C69.7707 7.28 70.0307 7.16 70.3007 7.08C70.5807 7 70.8557 6.96 71.1257 6.96C71.7257 6.96 72.2257 7.08 72.6257 7.32C73.0257 7.56 73.3257 7.925 73.5257 8.415C73.7257 8.905 73.8257 9.51 73.8257 10.23V15H71.9657V10.35C71.9657 9.95 71.9107 9.62 71.8007 9.36C71.7007 9.1 71.5407 8.91 71.3207 8.79C71.1107 8.66 70.8457 8.595 70.5257 8.595C70.2757 8.595 70.0357 8.64 69.8057 8.73C69.5857 8.81 69.3957 8.93 69.2357 9.09C69.0757 9.24 68.9507 9.415 68.8607 9.615C68.7707 9.815 68.7257 10.035 68.7257 10.275V15H66.8657V10.335C66.8657 9.955 66.8107 9.64 66.7007 9.39C66.5907 9.13 66.4307 8.935 66.2207 8.805C66.0107 8.665 65.7557 8.595 65.4557 8.595C65.2057 8.595 64.9707 8.64 64.7507 8.73C64.5307 8.81 64.3407 8.925 64.1807 9.075C64.0207 9.225 63.8957 9.4 63.8057 9.6C63.7157 9.8 63.6707 10.02 63.6707 10.26V15H61.8107ZM79.5789 15.15C78.7489 15.15 78.0139 14.975 77.3739 14.625C76.7439 14.275 76.2489 13.8 75.8889 13.2C75.5389 12.59 75.3639 11.895 75.3639 11.115C75.3639 10.495 75.4639 9.93 75.6639 9.42C75.8639 8.91 76.1389 8.47 76.4889 8.1C76.8489 7.72 77.2739 7.43 77.7639 7.23C78.2639 7.02 78.8089 6.915 79.3989 6.915C79.9189 6.915 80.4039 7.015 80.8539 7.215C81.3039 7.415 81.6939 7.69 82.0239 8.04C82.3539 8.38 82.6039 8.79 82.7739 9.27C82.9539 9.74 83.0389 10.255 83.0289 10.815L83.0139 11.46H76.6089L76.2639 10.2H81.4689L81.2289 10.455V10.125C81.1989 9.815 81.0989 9.545 80.9289 9.315C80.7589 9.075 80.5389 8.89 80.2689 8.76C80.0089 8.62 79.7189 8.55 79.3989 8.55C78.9089 8.55 78.4939 8.645 78.1539 8.835C77.8239 9.025 77.5739 9.3 77.4039 9.66C77.2339 10.01 77.1489 10.45 77.1489 10.98C77.1489 11.49 77.2539 11.935 77.4639 12.315C77.6839 12.695 77.9889 12.99 78.3789 13.2C78.7789 13.4 79.2439 13.5 79.7739 13.5C80.1439 13.5 80.4839 13.44 80.7939 13.32C81.1039 13.2 81.4389 12.985 81.7989 12.675L82.7139 13.95C82.4439 14.2 82.1339 14.415 81.7839 14.595C81.4439 14.765 81.0839 14.9 80.7039 15C80.3239 15.1 79.9489 15.15 79.5789 15.15Z" fill="black"/>
</svg>
