<svg width="84" height="20" viewBox="0 0 84 20" fill="none" xmlns="http://www.w3.org/2000/svg">
<path d="M10 2V3C13.866 3 17 6.13401 17 10H18H19C19 5.02944 14.9706 1 10 1V2ZM18 10H19C19 8.14645 17.2132 7 15.5 7V8V9C16.5482 9 17 9.64441 17 10H18ZM15.5 8V7C13.7868 7 12 8.14645 12 10H13H14C14 9.64441 14.4518 9 15.5 9V8ZM13 10H14C14 9.00933 13.3977 8.23485 12.676 7.75374C11.9474 7.26796 10.9983 7 10 7V8V9C10.6585 9 11.2095 9.17976 11.5666 9.41784C11.9307 9.66058 12 9.8861 12 10H13ZM10 8V7C9.00168 7 8.05265 7.26796 7.32398 7.75374C6.6023 8.23485 6 9.00933 6 10H7H8C8 9.8861 8.06927 9.66058 8.43338 9.41784C8.7905 9.17976 9.34146 9 10 9V8ZM7 10H8C8 8.14645 6.21323 7 4.5 7V8V9C5.54819 9 6 9.64441 6 10H7ZM4.5 8V7C2.78677 7 1 8.14645 1 10H2H3C3 9.64441 3.45181 9 4.5 9V8ZM2 10H3C3 6.13401 6.13401 3 10 3V2V1C5.02944 1 1 5.02944 1 10H2Z" fill="white"/>
<path d="M10 8V16" stroke="white" stroke-width="2" stroke-linecap="round"/>
<path d="M11 16C11 17.6569 9.65685 19 8 19V17C8.55228 17 9 16.5523 9 16H11Z" fill="white"/>
<path d="M5 12L4 15" stroke="white" stroke-width="2"/>
<path d="M15 12L16 15" stroke="white" stroke-width="2"/>
<path d="M29.09 12.615L28.46 10.86L32.21 7.065H35.015L29.09 12.615ZM27.065 15V3.9H29.195V15H27.065ZM32.435 15L29.585 11.415L31.085 10.215L35 15H32.435ZM39.5294 15.15C38.7194 15.15 37.9944 14.975 37.3544 14.625C36.7244 14.265 36.2244 13.775 35.8544 13.155C35.4944 12.535 35.3144 11.825 35.3144 11.025C35.3144 10.225 35.4944 9.52 35.8544 8.91C36.2244 8.29 36.7244 7.8 37.3544 7.44C37.9944 7.08 38.7194 6.9 39.5294 6.9C40.3294 6.9 41.0444 7.08 41.6744 7.44C42.3144 7.8 42.8144 8.29 43.1744 8.91C43.5344 9.52 43.7144 10.225 43.7144 11.025C43.7144 11.825 43.5344 12.535 43.1744 13.155C42.8144 13.775 42.3144 14.265 41.6744 14.625C41.0444 14.975 40.3294 15.15 39.5294 15.15ZM39.5294 13.29C39.9194 13.29 40.2694 13.195 40.5794 13.005C40.8894 12.805 41.1294 12.535 41.2994 12.195C41.4794 11.845 41.5694 11.455 41.5694 11.025C41.5694 10.585 41.4794 10.195 41.2994 9.855C41.1294 9.505 40.8894 9.235 40.5794 9.045C40.2694 8.845 39.9194 8.745 39.5294 8.745C39.1294 8.745 38.7744 8.845 38.4644 9.045C38.1544 9.245 37.9094 9.515 37.7294 9.855C37.5494 10.195 37.4644 10.585 37.4744 11.025C37.4644 11.455 37.5494 11.845 37.7294 12.195C37.9094 12.535 38.1544 12.805 38.4644 13.005C38.7744 13.195 39.1294 13.29 39.5294 13.29ZM47.987 15.15C47.247 15.15 46.587 15.03 46.007 14.79C45.437 14.54 44.977 14.2 44.627 13.77L45.947 12.63C46.257 12.96 46.602 13.2 46.982 13.35C47.362 13.49 47.742 13.56 48.122 13.56C48.272 13.56 48.407 13.545 48.527 13.515C48.657 13.475 48.767 13.425 48.857 13.365C48.947 13.295 49.012 13.215 49.052 13.125C49.102 13.025 49.127 12.92 49.127 12.81C49.127 12.59 49.037 12.415 48.857 12.285C48.757 12.235 48.602 12.175 48.392 12.105C48.182 12.025 47.912 11.94 47.582 11.85C47.072 11.72 46.637 11.57 46.277 11.4C45.927 11.22 45.647 11.02 45.437 10.8C45.257 10.59 45.117 10.365 45.017 10.125C44.927 9.875 44.882 9.6 44.882 9.3C44.882 8.94 44.962 8.615 45.122 8.325C45.282 8.025 45.502 7.77 45.782 7.56C46.072 7.35 46.402 7.19 46.772 7.08C47.142 6.96 47.532 6.9 47.942 6.9C48.352 6.9 48.752 6.95 49.142 7.05C49.532 7.15 49.892 7.295 50.222 7.485C50.562 7.665 50.857 7.88 51.107 8.13L49.967 9.39C49.787 9.22 49.582 9.065 49.352 8.925C49.132 8.785 48.902 8.675 48.662 8.595C48.422 8.515 48.207 8.475 48.017 8.475C47.847 8.475 47.692 8.49 47.552 8.52C47.422 8.55 47.312 8.595 47.222 8.655C47.132 8.715 47.062 8.795 47.012 8.895C46.972 8.985 46.952 9.085 46.952 9.195C46.952 9.305 46.977 9.41 47.027 9.51C47.087 9.61 47.167 9.695 47.267 9.765C47.377 9.825 47.537 9.895 47.747 9.975C47.967 10.055 48.262 10.145 48.632 10.245C49.112 10.375 49.517 10.52 49.847 10.68C50.187 10.84 50.457 11.025 50.657 11.235C50.827 11.415 50.952 11.62 51.032 11.85C51.112 12.08 51.152 12.335 51.152 12.615C51.152 13.105 51.012 13.545 50.732 13.935C50.462 14.315 50.087 14.615 49.607 14.835C49.127 15.045 48.587 15.15 47.987 15.15ZM55.6405 15.15C54.9805 15.15 54.3855 14.97 53.8555 14.61C53.3255 14.25 52.9055 13.76 52.5955 13.14C52.2855 12.52 52.1305 11.81 52.1305 11.01C52.1305 10.21 52.2855 9.505 52.5955 8.895C52.9155 8.275 53.3455 7.79 53.8855 7.44C54.4255 7.08 55.0405 6.9 55.7305 6.9C56.1205 6.9 56.4755 6.96 56.7955 7.08C57.1255 7.19 57.4105 7.345 57.6505 7.545C57.9005 7.745 58.1105 7.975 58.2805 8.235C58.4505 8.495 58.5705 8.775 58.6405 9.075L58.1905 9V7.065H60.3055V15H58.1605V13.095L58.6405 13.05C58.5605 13.33 58.4305 13.595 58.2505 13.845C58.0705 14.095 57.8455 14.32 57.5755 14.52C57.3155 14.71 57.0205 14.865 56.6905 14.985C56.3605 15.095 56.0105 15.15 55.6405 15.15ZM56.2255 13.305C56.6255 13.305 56.9755 13.21 57.2755 13.02C57.5755 12.83 57.8055 12.565 57.9655 12.225C58.1355 11.875 58.2205 11.47 58.2205 11.01C58.2205 10.56 58.1355 10.165 57.9655 9.825C57.8055 9.485 57.5755 9.22 57.2755 9.03C56.9755 8.83 56.6255 8.73 56.2255 8.73C55.8355 8.73 55.4905 8.83 55.1905 9.03C54.9005 9.22 54.6705 9.485 54.5005 9.825C54.3305 10.165 54.2455 10.56 54.2455 11.01C54.2455 11.47 54.3305 11.875 54.5005 12.225C54.6705 12.565 54.9005 12.83 55.1905 13.02C55.4905 13.21 55.8355 13.305 56.2255 13.305ZM62.426 15V7.065H64.481L64.526 8.58L64.211 8.64C64.321 8.38 64.466 8.145 64.646 7.935C64.826 7.725 65.036 7.545 65.276 7.395C65.526 7.245 65.786 7.13 66.056 7.05C66.326 6.96 66.596 6.915 66.866 6.915C67.276 6.915 67.646 6.98 67.976 7.11C68.306 7.24 68.586 7.445 68.816 7.725C69.046 7.995 69.226 8.355 69.356 8.805L69.026 8.775L69.131 8.535C69.261 8.295 69.426 8.08 69.626 7.89C69.826 7.69 70.051 7.52 70.301 7.38C70.551 7.23 70.811 7.115 71.081 7.035C71.351 6.955 71.616 6.915 71.876 6.915C72.496 6.915 73.011 7.04 73.421 7.29C73.831 7.53 74.136 7.895 74.336 8.385C74.546 8.875 74.651 9.475 74.651 10.185V15H72.521V10.335C72.521 9.975 72.471 9.68 72.371 9.45C72.271 9.22 72.126 9.05 71.936 8.94C71.746 8.82 71.501 8.76 71.201 8.76C70.971 8.76 70.756 8.8 70.556 8.88C70.366 8.95 70.196 9.055 70.046 9.195C69.906 9.325 69.796 9.48 69.716 9.66C69.636 9.84 69.596 10.04 69.596 10.26V15H67.466V10.32C67.466 9.99 67.411 9.71 67.301 9.48C67.201 9.24 67.056 9.06 66.866 8.94C66.676 8.82 66.441 8.76 66.161 8.76C65.931 8.76 65.716 8.8 65.516 8.88C65.326 8.95 65.161 9.055 65.021 9.195C64.881 9.325 64.766 9.48 64.676 9.66C64.596 9.84 64.556 10.035 64.556 10.245V15H62.426ZM80.4443 15.15C79.5843 15.15 78.8343 14.975 78.1943 14.625C77.5543 14.275 77.0543 13.795 76.6943 13.185C76.3343 12.575 76.1543 11.875 76.1543 11.085C76.1543 10.475 76.2543 9.915 76.4543 9.405C76.6543 8.895 76.9343 8.455 77.2943 8.085C77.6543 7.705 78.0793 7.415 78.5693 7.215C79.0693 7.005 79.6093 6.9 80.1893 6.9C80.7293 6.9 81.2293 7 81.6893 7.2C82.1493 7.39 82.5443 7.665 82.8743 8.025C83.2143 8.375 83.4743 8.79 83.6543 9.27C83.8343 9.75 83.9143 10.275 83.8943 10.845L83.8793 11.505H77.5043L77.1593 10.2H82.1243L81.8843 10.47V10.14C81.8643 9.87 81.7743 9.625 81.6143 9.405C81.4643 9.185 81.2693 9.015 81.0293 8.895C80.7893 8.775 80.5193 8.715 80.2193 8.715C79.7793 8.715 79.4043 8.8 79.0943 8.97C78.7943 9.14 78.5643 9.39 78.4043 9.72C78.2443 10.05 78.1643 10.45 78.1643 10.92C78.1643 11.4 78.2643 11.815 78.4643 12.165C78.6743 12.515 78.9643 12.79 79.3343 12.99C79.7143 13.18 80.1593 13.275 80.6693 13.275C81.0193 13.275 81.3393 13.22 81.6293 13.11C81.9193 13 82.2293 12.81 82.5593 12.54L83.5793 13.965C83.2893 14.225 82.9693 14.445 82.6193 14.625C82.2693 14.795 81.9093 14.925 81.5393 15.015C81.1693 15.105 80.8043 15.15 80.4443 15.15Z" fill="white"/>
</svg>
